<svg viewBox="0 0 1106 424" fill="none" xmlns="http://www.w3.org/2000/svg"><g clip-path="url(#clip0_2141_44318)"><path d="M592.871 148.179V75.4688H619.931C623.841 75.4688 627.391 76.2787 630.581 77.8887C633.771 79.4987 636.291 81.7887 638.141 84.7687C639.991 87.7487 640.921 91.2488 640.921 95.2588C640.921 96.8888 640.701 98.5688 640.271 100.299C639.831 102.029 639.111 103.619 638.091 105.079C637.071 106.539 635.671 107.639 633.911 108.399C636.191 108.949 638.031 109.979 639.421 111.489C640.801 112.999 641.861 114.729 642.591 116.679C643.321 118.629 643.801 120.639 644.051 122.679C644.301 124.719 644.421 126.579 644.421 128.239C644.421 131.979 643.451 135.359 641.511 138.359C639.571 141.369 636.961 143.759 633.701 145.529C630.431 147.289 626.821 148.179 622.871 148.179H592.901H592.871ZM607.211 103.159H618.271C620.551 103.159 622.511 102.419 624.141 100.929C625.771 99.4387 626.581 97.5187 626.581 95.1687C626.581 92.8187 625.771 90.9087 624.141 89.6387C622.511 88.3787 620.561 87.7387 618.271 87.7387H607.211V103.169V103.159ZM607.211 135.979H621.331C623.231 135.979 624.971 135.519 626.521 134.599C628.081 133.679 629.321 132.419 630.261 130.809C631.201 129.199 631.661 127.369 631.661 125.329C631.661 123.599 631.191 121.949 630.261 120.389C629.321 118.829 628.081 117.559 626.521 116.579C624.961 115.589 623.231 115.099 621.331 115.099H607.211V135.979ZM675.241 75.4788H691.541L717.921 148.189H702.711L698.351 136.139H668.431L664.071 148.189H648.861L675.241 75.4788ZM673.681 121.799H693.101L683.341 95.1588L673.681 121.799ZM727.481 148.179V75.4688H751.571C756.591 75.4688 761.291 76.4088 765.671 78.2988C770.051 80.1788 773.911 82.7987 777.251 86.1387C780.591 89.4787 783.211 93.3387 785.091 97.7188C786.971 102.099 787.921 106.799 787.921 111.819C787.921 116.839 786.981 121.539 785.091 125.919C783.201 130.299 780.591 134.159 777.251 137.499C773.911 140.839 770.051 143.459 765.671 145.339C761.291 147.219 756.591 148.169 751.571 148.169H727.481V148.179ZM741.821 133.849H751.581C754.551 133.849 757.371 133.279 760.021 132.139C762.671 130.999 765.011 129.419 767.061 127.409C769.111 125.399 770.701 123.059 771.861 120.399C773.021 117.729 773.601 114.879 773.601 111.829C773.601 108.779 773.021 105.939 771.861 103.289C770.701 100.639 769.111 98.2987 767.081 96.2787C765.051 94.2487 762.721 92.6687 760.071 91.5287C757.421 90.3887 754.591 89.8187 751.581 89.8187H741.821V133.859V133.849ZM816.701 75.4788H833.001L859.381 148.189H844.171L839.811 136.139H809.891L805.531 148.189H790.321L816.701 75.4788ZM815.141 121.799H834.561L824.801 95.1588L815.141 121.799ZM868.951 148.179V75.4688H884.431L912.791 122.259V75.4688H927.131V148.179H911.651L883.291 101.389V148.179H868.951ZM626.531 248.909C621.481 248.909 616.771 247.919 612.431 245.949C608.081 243.979 604.291 241.249 601.061 237.769C597.821 234.289 595.301 230.269 593.501 225.699C591.701 221.129 590.801 216.269 590.801 211.109C590.801 205.569 591.791 200.519 593.761 195.949C595.731 191.379 598.411 187.419 601.811 184.079C605.201 180.739 609.051 178.159 613.361 176.339C617.671 174.529 622.161 173.619 626.841 173.619C631.961 173.619 636.981 174.809 641.901 177.199C646.821 179.589 651.221 183.379 655.091 188.569L642.311 195.419C640.091 192.859 637.631 190.949 634.911 189.709C632.191 188.469 629.431 187.839 626.631 187.839C623.831 187.839 621.141 188.409 618.551 189.549C615.971 190.689 613.681 192.319 611.671 194.429C609.661 196.539 608.071 199.029 606.891 201.909C605.711 204.779 605.131 207.949 605.131 211.409C605.131 214.629 605.691 217.639 606.821 220.439C607.951 223.239 609.491 225.699 611.471 227.809C613.441 229.919 615.741 231.569 618.351 232.769C620.971 233.959 623.761 234.559 626.741 234.559C628.571 234.559 630.381 234.289 632.161 233.749C633.941 233.209 635.651 232.419 637.281 231.379C638.911 230.339 640.401 229.049 641.771 227.489C643.141 225.929 644.341 224.129 645.381 222.089H634.111V209.629H662.261C662.471 214.999 661.691 220.049 659.931 224.789C658.171 229.529 655.631 233.709 652.351 237.329C649.061 240.949 645.221 243.779 640.821 245.819C636.421 247.869 631.661 248.879 626.541 248.879V248.899L626.531 248.909ZM673.991 247.559V174.849H688.331V247.559H673.991ZM701.311 247.559V233.219L740.731 189.179H701.311V174.839H760.101V189.179L720.681 233.219H760.101V247.559H701.311ZM773.081 247.559V174.849H787.421V247.559H773.081ZM592.871 346.939V274.229H608.351L636.711 321.019V274.229H651.051V346.939H635.571L607.211 300.149V346.939H592.871ZM688.841 274.229H705.141L731.521 346.939H716.311L711.951 334.889H682.031L677.671 346.939H662.461L688.841 274.229ZM687.291 320.559H706.711L696.951 293.919L687.291 320.559ZM763.261 348.289C759.181 348.289 755.271 347.649 751.551 346.369C747.821 345.089 744.571 343.229 741.791 340.809C739.001 338.389 737.001 335.509 735.791 332.189L749.241 327.199C749.661 328.379 750.521 329.479 751.841 330.499C753.151 331.519 754.801 332.349 756.781 332.989C758.751 333.629 760.921 333.949 763.271 333.949C765.621 333.949 767.641 333.609 769.631 332.939C771.621 332.269 773.231 331.319 774.461 330.109C775.691 328.899 776.311 327.479 776.311 325.849C776.311 324.219 775.671 322.879 774.391 321.799C773.111 320.729 771.471 319.869 769.451 319.229C767.441 318.589 765.381 318.099 763.271 317.749C758.041 316.989 753.361 315.749 749.221 314.039C745.081 312.329 741.821 309.959 739.431 306.919C737.041 303.889 735.851 300.039 735.851 295.369C735.851 290.699 737.121 286.939 739.661 283.579C742.211 280.219 745.561 277.609 749.731 275.739C753.901 273.869 758.411 272.939 763.261 272.939C767.271 272.939 771.151 273.579 774.891 274.859C778.631 276.139 781.891 277.999 784.681 280.419C787.471 282.839 789.461 285.749 790.681 289.149L777.231 294.029C776.811 292.859 775.951 291.759 774.631 290.759C773.321 289.749 771.671 288.949 769.691 288.319C767.721 287.699 765.571 287.379 763.251 287.379C761.031 287.349 758.931 287.669 756.941 288.369C754.951 289.059 753.321 290.019 752.061 291.229C750.801 292.439 750.161 293.829 750.161 295.379C750.161 297.429 750.761 298.959 751.951 299.999C753.141 301.039 754.731 301.779 756.701 302.229C758.671 302.679 760.851 303.079 763.251 303.419C768.171 304.139 772.701 305.439 776.861 307.289C781.011 309.139 784.351 311.599 786.861 314.659C789.371 317.719 790.621 321.459 790.621 325.849C790.621 330.239 789.361 334.279 786.831 337.639C784.301 340.999 780.961 343.619 776.811 345.479C772.661 347.349 768.141 348.279 763.261 348.279H763.281L763.261 348.289ZM804.811 346.939V274.229H819.151V346.939H804.811ZM867.951 348.289C863.031 348.289 858.411 347.309 854.081 345.349C849.751 343.389 845.941 340.679 842.651 337.219C839.361 333.759 836.781 329.749 834.911 325.199C833.041 320.649 832.111 315.779 832.111 310.579C832.111 305.379 833.051 300.509 834.911 295.959C836.781 291.409 839.361 287.399 842.651 283.939C845.941 280.479 849.751 277.769 854.081 275.809C858.411 273.849 863.031 272.869 867.951 272.869C872.871 272.869 877.541 273.849 881.871 275.809C886.201 277.769 890.011 280.479 893.301 283.939C896.591 287.399 899.161 291.409 901.011 295.959C902.861 300.509 903.791 305.379 903.791 310.579C903.791 315.779 902.861 320.649 901.011 325.199C899.161 329.749 896.591 333.759 893.301 337.219C890.011 340.679 886.201 343.389 881.871 345.349C877.541 347.309 872.901 348.289 867.951 348.289ZM867.951 333.959C870.891 333.959 873.661 333.339 876.261 332.109C878.861 330.879 881.141 329.189 883.111 327.039C885.081 324.889 886.631 322.419 887.761 319.619C888.881 316.819 889.451 313.799 889.451 310.589C889.451 307.379 888.891 304.349 887.761 301.529C886.631 298.709 885.091 296.229 883.111 294.109C881.141 291.979 878.851 290.299 876.261 289.069C873.661 287.839 870.891 287.219 867.951 287.219C865.011 287.219 862.241 287.839 859.641 289.069C857.041 290.299 854.761 291.989 852.791 294.139C850.821 296.289 849.261 298.759 848.141 301.559C847.011 304.359 846.451 307.379 846.451 310.589C846.451 313.799 847.011 316.829 848.141 319.649C849.261 322.469 850.811 324.949 852.791 327.069C854.761 329.199 857.051 330.879 859.641 332.109C862.241 333.339 865.011 333.959 867.951 333.959ZM913.921 346.939V274.229H929.401L957.761 321.019V274.229H972.101V346.939H956.621L928.261 300.149V346.939H913.921ZM1009.89 274.229H1026.19L1052.57 346.939H1037.36L1033 334.889H1003.08L998.721 346.939H983.511L1009.89 274.229ZM1008.33 320.559H1027.75L1017.99 293.919L1008.33 320.559ZM1062.13 346.939V274.229H1076.47V332.599H1105.76V346.939H1062.14H1062.13Z" fill="#00CFFF"></path><path d="M337.058 143.614C332.198 153.753 325.169 162.362 317.429 170.361C290.901 197.819 275.342 230.616 268.993 268.062C267.903 274.531 266.483 280.681 264.983 288.46C263.473 280.681 262.063 274.531 260.973 268.062C254.623 230.616 239.065 197.819 212.536 170.361C204.807 162.362 197.778 153.753 192.908 143.614C184.348 125.786 189.018 100.018 203.317 86.3798C204.707 85.04 206.577 82.9702 208.327 84.0901C209.987 85.16 209.347 87.3797 209.057 89.0996C207.117 100.158 206.667 111.057 210.617 121.946C219.636 146.994 240.764 158.053 264.993 157.833C289.211 158.053 310.34 146.994 319.369 121.946C323.309 111.057 322.869 100.158 320.929 89.0996C320.639 87.3697 320.009 85.16 321.659 84.0901C323.409 82.9702 325.279 85.04 326.668 86.3798C340.967 100.018 345.637 125.796 337.078 143.614H337.088H337.058ZM148.101 372.991C157.68 368.152 167.58 364.082 178.089 361.802C198.707 357.323 219.346 358.003 239.965 362.052C241.544 362.372 243.724 363.142 244.764 361.752C245.404 360.903 243.224 358.773 241.904 357.623C233.025 349.854 223.266 343.364 212.386 338.815C179.069 324.886 146.961 325.536 116.123 346.314C102.254 355.653 88.0752 365.582 72.3963 371.921C62.157 376.061 54.3176 378.181 42.3884 380.831C35.9489 382.26 36.2289 384.26 39.1087 390.01C44.4983 400.789 56.0775 409.698 69.0166 414.317C77.616 417.387 86.3853 419.777 95.2747 421.547C117.623 425.996 139.412 423.656 160.7 415.537C180.159 408.128 199.007 399.379 217.736 390.36C226.096 386.34 234.295 381.98 242.524 377.691C244.064 376.891 246.314 375.811 246.314 374.241C246.314 372.511 243.394 371.691 241.624 371.142C237.975 369.992 234.215 369.162 230.455 368.402C203.707 363.022 177.469 364.202 151.881 374.361C143.681 377.621 135.962 382.09 127.152 383.7C134.132 380.121 141.101 376.511 148.111 372.981H148.101V372.991ZM259.673 338.105C259.433 309.598 255.793 289.05 232.085 263.192C218.436 248.314 203.917 239.625 182.569 234.535C166.64 230.736 151.581 224.736 136.342 218.387C125.213 213.747 118.193 209.698 108.404 203.828C102.544 200.309 101.134 201.278 100.434 207.888C99.8644 213.247 100.084 217.407 100.534 222.336C103.714 257.493 118.463 284.76 146.621 304.848C165.63 318.417 187.658 326.446 209.097 335.345C221.216 340.375 233.535 344.924 245.794 349.614C247.404 350.224 249.284 351.124 250.614 350.254C251.794 349.484 250.934 346.784 250.254 345.414C237.755 319.997 220.166 299.199 195.458 284.77C184.678 278.471 171.449 272.421 161.4 268.312C203.557 279.361 233.695 302.058 256.433 339.205C256.713 339.665 257.403 340.835 258.103 340.865C259.023 340.905 259.683 339.705 259.673 338.105ZM113.843 314.947C127.142 315.647 136.232 318.937 143.761 320.447C146.071 320.907 147.581 318.077 145.951 316.367C143.691 313.997 141.621 311.727 139.402 309.578C129.572 300.009 119.423 291.259 106.734 284.94C89.4851 276.341 73.2263 276.361 55.7075 276.921C39.2786 277.451 22.9998 276.771 7.14091 271.741C-0.18858 269.422 -1.15851 270.282 1.03133 277.441C9.01077 303.448 19.6 325.006 42.9484 344.314C58.5073 357.173 77.646 359.443 94.2648 351.014C109.194 343.444 123.263 334.165 138.932 327.986C140.012 327.566 141.501 326.826 141.511 325.786C141.531 324.606 140.102 323.686 137.842 323.196C124.843 320.367 111.844 317.457 98.4545 316.777C91.485 316.427 84.5555 315.427 77.606 314.717C77.606 314.717 101.754 314.307 113.823 314.937L113.843 314.947ZM402.823 383.68C394.004 382.07 386.284 377.601 378.095 374.341C352.517 364.182 326.258 362.992 299.52 368.382C295.761 369.142 292.001 369.972 288.351 371.122C286.581 371.681 283.661 372.491 283.661 374.221C283.661 375.791 285.911 376.871 287.451 377.671C295.681 381.96 303.88 386.31 312.239 390.33C330.968 399.349 349.827 408.098 369.275 415.507C390.574 423.626 412.362 425.956 434.701 421.517C443.59 419.747 452.36 417.357 460.959 414.287C473.898 409.668 485.467 400.769 490.867 389.98C493.747 384.23 494.027 382.23 487.587 380.801C475.648 378.161 467.819 376.031 457.579 371.891C441.9 365.552 427.711 355.613 413.852 346.284C383.004 325.516 350.907 324.856 317.589 338.785C306.71 343.334 296.951 349.824 288.071 357.593C286.751 358.743 284.581 360.873 285.211 361.722C286.251 363.122 288.421 362.332 290.011 362.022C310.62 357.963 331.258 357.293 351.887 361.772C362.396 364.052 372.295 368.122 381.875 372.961C388.884 376.491 395.844 380.101 402.833 383.68H402.823ZM271.872 340.865C272.562 340.835 273.262 339.665 273.542 339.205C296.281 302.048 326.418 279.361 368.576 268.312C358.526 272.421 345.297 278.471 334.518 284.77C309.81 299.209 292.221 320.007 279.722 345.414C279.042 346.784 278.182 349.484 279.362 350.254C280.682 351.124 282.572 350.224 284.181 349.614C296.441 344.934 308.76 340.375 320.879 335.345C342.317 326.456 364.336 318.417 383.354 304.848C411.522 284.75 426.271 257.493 429.441 222.336C429.891 217.397 430.111 213.247 429.541 207.888C428.841 201.278 427.441 200.309 421.572 203.828C411.792 209.698 404.763 213.747 393.634 218.387C378.395 224.736 363.346 230.736 347.407 234.535C326.058 239.625 311.53 248.314 297.89 263.192C274.182 289.05 270.542 309.598 270.302 338.105C270.292 339.705 270.962 340.905 271.872 340.865ZM452.34 314.717C445.4 315.427 438.461 316.427 431.491 316.777C418.112 317.447 405.103 320.367 392.104 323.196C389.844 323.686 388.424 324.606 388.434 325.786C388.444 326.816 389.934 327.556 391.014 327.986C406.683 334.155 420.752 343.434 435.681 351.014C452.29 359.443 471.438 357.183 486.997 344.314C510.346 325.006 520.935 303.448 528.914 277.441C531.114 270.292 530.134 269.412 522.805 271.741C506.936 276.781 490.667 277.451 474.238 276.921C456.719 276.351 440.46 276.331 423.212 284.94C410.523 291.259 400.383 300.009 390.544 309.578C388.334 311.727 386.264 313.997 383.994 316.367C382.365 318.077 383.864 320.907 386.184 320.447C393.724 318.937 402.803 315.647 416.102 314.947C428.161 314.317 452.32 314.727 452.32 314.727L452.34 314.717Z" fill="#02C39A"></path><path d="M191.418 179.45C171.46 172.861 149.441 171.281 133.372 155.682C131.272 153.642 129.792 154.462 129.632 157.482C129.312 163.571 130.072 169.591 131.132 175.54C134.752 195.768 144.561 211.167 164.81 218.496C170.53 220.566 176.349 222.136 182.209 223.646C199.088 227.985 216.216 232.205 229.205 244.753C231.095 246.573 233.445 249.283 234.275 248.353C235.205 247.313 235.425 242.564 235.445 241.134C235.015 209.557 221.416 189.349 191.428 179.46L191.418 179.45ZM294.531 241.134C294.541 242.574 294.761 247.303 295.691 248.353C296.521 249.273 298.871 246.573 300.76 244.753C313.74 232.205 330.878 227.985 347.757 223.646C353.617 222.136 359.446 220.566 365.156 218.496C385.394 211.167 395.214 195.768 398.834 175.54C399.903 169.591 400.653 163.571 400.333 157.482C400.173 154.472 398.694 153.652 396.594 155.682C380.525 171.281 358.516 172.861 338.548 179.45C308.56 189.339 294.961 209.547 294.531 241.124V241.134ZM265.113 148.253C282.032 148.183 296.071 133.744 295.961 116.536C295.851 99.6878 281.792 85.4592 265.173 85.3793C247.584 85.2993 233.975 99.1479 234.015 117.096C234.055 134.594 247.764 148.333 265.123 148.263L265.113 148.253Z" fill="#00CFFF"></path><path d="M329.999 24.2052C320.909 26.9549 311.9 41.2535 313.28 50.7325C314.03 55.842 316.2 57.0619 320.689 54.6222C330.189 49.4727 334.818 41.1835 335.868 31.1545C335.978 25.1951 333.978 23.0053 329.999 24.2052ZM268.003 2.8773C265.693 -1.06231 263.263 -0.792342 260.574 2.68731C254.164 10.9865 254.214 25.3851 260.654 33.9442C262.983 37.0339 265.253 37.1939 267.363 34.0942C270.573 29.3647 272.863 24.2152 272.853 17.7258C272.523 12.7563 270.793 7.63682 268.003 2.86729V2.8773ZM201.408 25.525C199.478 24.4252 197.448 22.9253 195.228 24.2452C192.838 25.665 192.908 28.3348 192.988 30.7645C193.338 40.8135 198.078 48.3828 206.407 53.7822C208.227 54.9621 210.307 56.502 212.567 55.4521C215.247 54.2022 214.607 51.3625 214.867 48.8827C214.387 38.8937 210.507 30.7245 201.398 25.535L201.408 25.525ZM138.392 72.1204C142.212 82.5194 155.641 90.0586 166.29 88.0888C170.32 87.3389 170.94 85.5291 169.24 82.2694C164.31 72.7803 156.971 66.9409 143.142 66.8409C138.072 66.7509 136.752 67.6809 138.382 72.1204H138.392ZM389.374 73.2503C391.354 69.4307 390.384 67.1409 385.705 66.9009C375.435 66.361 367.126 69.8406 361.466 78.6398C359.997 80.9295 357.487 83.4193 359.017 86.259C360.467 88.9387 363.766 87.5189 366.266 87.9588C377.045 87.8888 384.545 82.6194 389.374 73.2603V73.2503Z" fill="#F9C626"></path></g><defs><clipPath id="clip0_2141_44318"><rect width="1105.76" height="423.77" fill="white"></rect></clipPath></defs></svg>